<?xml version="1.0" encoding="UTF-8" standalone="no"?>
<!-- Created with Inkscape (http://www.inkscape.org/) -->
<svg
   xmlns:dc="http://purl.org/dc/elements/1.1/"
   xmlns:cc="http://web.resource.org/cc/"
   xmlns:rdf="http://www.w3.org/1999/02/22-rdf-syntax-ns#"
   xmlns:svg="http://www.w3.org/2000/svg"
   xmlns="http://www.w3.org/2000/svg"
   xmlns:sodipodi="http://inkscape.sourceforge.net/DTD/sodipodi-0.dtd"
   xmlns:inkscape="http://www.inkscape.org/namespaces/inkscape"
   width="744.09448819"
   height="1052.3622047"
   id="svg2"
   sodipodi:version="0.32"
   inkscape:version="0.43"
   sodipodi:docbase="F:\Wikipedia\ru\Спираль"
   sodipodi:docname="Спираль.svg"
   inkscape:export-filename="F:\Wikipedia\ru\Спираль\Спираль.png"
   inkscape:export-xdpi="72"
   inkscape:export-ydpi="72">
  <defs
     id="defs4" />
  <sodipodi:namedview
     id="base"
     pagecolor="#ffffff"
     bordercolor="#666666"
     borderopacity="1.0"
     inkscape:pageopacity="0.0"
     inkscape:pageshadow="2"
     inkscape:zoom="0.35"
     inkscape:cx="375"
     inkscape:cy="520"
     inkscape:document-units="px"
     inkscape:current-layer="layer1"
     inkscape:window-width="1152"
     inkscape:window-height="817"
     inkscape:window-x="-4"
     inkscape:window-y="-4" />
  <metadata
     id="metadata7">
    <rdf:RDF>
      <cc:Work
         rdf:about="">
        <dc:format>image/svg+xml</dc:format>
        <dc:type
           rdf:resource="http://purl.org/dc/dcmitype/StillImage" />
      </cc:Work>
    </rdf:RDF>
  </metadata>
  <g
     inkscape:label="Layer 1"
     inkscape:groupmode="layer"
     id="layer1">
    <path
       sodipodi:type="spiral"
       style="fill:none;fill-opacity:0.75;fill-rule:evenodd;stroke:#000060;stroke-width:20;stroke-linecap:round;stroke-linejoin:miter;stroke-miterlimit:4;stroke-dasharray:none;stroke-opacity:1"
       id="path1307"
       sodipodi:cx="357.14285"
       sodipodi:cy="509.50504"
       sodipodi:expansion="1"
       sodipodi:revolution="4.3869352"
       sodipodi:radius="326.12787"
       sodipodi:argument="-18.811113"
       sodipodi:t0="0"
       d="M 357.14285,509.50504 C 341.12366,537.01244 324.02662,522.64134 319.99996,508.07646 C 312.79721,482.02331 334.54311,458.0548 359.28571,453.7907 C 395.59647,447.53296 427.24562,477.49181 431.42864,512.36218 C 437.00394,558.83889 398.56148,598.38382 353.57142,602.36226 C 296.95603,607.36873 249.42665,560.32756 245.71418,505.21932 C 241.21788,438.47585 296.91679,382.91632 362.14285,379.50492 C 439.00951,375.4847 502.62604,439.8756 505.71442,515.21932 C 509.28007,602.20663 436.17556,673.89735 350.71428,676.64805 C 253.60774,679.77356 173.83114,597.94091 171.4284,502.36218 C 168.73288,395.13728 259.30389,307.26646 365,305.21913 C 482.34271,302.94622 578.31391,402.26307 580.0002,518.07647 C 581.85608,645.53663 473.78774,749.61288 347.85714,750.93383 C 210.27977,752.37694 98.094824,635.55279 97.142613,499.50503 C 96.108887,351.81064 221.6923,231.51411 367.85714,230.93335 C 525.66843,230.30632 654.07888,364.65173 654.28598,520.93361 C 654.50852,688.86171 511.39886,825.38798 344.99999,825.21961 C 252.07793,825.12559 162.28129,783.0117 101.91507,712.52761" />
  </g>
</svg>
